<svg xmlns="http://www.w3.org/2000/svg" viewBox="0 0 174 60" fill="none" class="injected-svg main-menu__logo-icon" data-src="assets/images/svg/logo.svg" xmlns:xlink="http://www.w3.org/1999/xlink"><g clip-path="url(#clip0-88)"><path d="M1.013 35.236a.92.92 0 00.366.74c1.053 1.991 2.157 3.136 3.359 3.48.82.23 1.702.08 2.4-.413.82-.542 1.568-1.089 2.268-1.595 1.724-1.25 3.084-2.238 4.236-2.238a4.5 4.5 0 011.5.29 3.559 3.559 0 00-.74 1.768c-.208 1.733.78 3.71 2.859 5.713a22.188 22.188 0 004.223 3.126c4.22 2.47 9.01 3.8 13.899 3.857 1.994.012 3.98-.255 5.9-.792A23.69 23.69 0 0049.624 45a19.634 19.634 0 007.35-12.472 36.06 36.06 0 002.93-4.891 1 1 0 00-.326-1.244 145.76 145.76 0 01-3.064-2.257l-.542-.405c-.223-2.26-2.213-11.658-19.866-13.516a33.459 33.459 0 00-7.346 0c-.013 0-.025 0-.039.005-7.643.89-12.2 4.636-14.029 8.464-1.316 2.76-1.29 5.591 0 7.5-.314.38-.67.725-1.058 1.028-1.152 0-2.512-.99-4.236-2.24-.7-.506-1.446-1.05-2.269-1.594a2.853 2.853 0 00-2.346-.422c-1.342.345-2.62 1.676-3.792 3.945a9.161 9.161 0 00-.108 8.068c.043.094.087.175.13.266zm15.378 2.272c.06-.433.287-.826.633-1.094.66.393 1.355.853 2.109 1.356l.775.514a7.25 7.25 0 01-1.822 2.679c-1.194-1.3-1.806-2.535-1.695-3.455zm17.92 6.438a4.356 4.356 0 01.465 3.946c-.006.02 0 .042-.007.061a24.22 24.22 0 01-4.809-.625 5.82 5.82 0 001.015-4 34.76 34.76 0 003.337.618zm-5.451-1.209a4.077 4.077 0 01-.812 3.764.978.978 0 00-.17.256 27.415 27.415 0 01-4.293-1.78 10.975 10.975 0 002.131-3.428c1.025.454 2.075.85 3.144 1.188zm-7.046 1.223a21.345 21.345 0 01-2.265-1.622 9.269 9.269 0 002.063-2.966 35.46 35.46 0 002.287 1.3 8.974 8.974 0 01-2.085 3.288zm15.034 3.95a6.399 6.399 0 00-.187-3.713c.032 0 .062.007.095.009a17.576 17.576 0 003.646-.116 6.4 6.4 0 01.6 3.069c-.093.027-.178.063-.272.09a18.922 18.922 0 01-3.882.661zm9.663-5.77a8 8 0 011.306 1.69 20.894 20.894 0 01-4.843 2.66 8.8 8.8 0 00-.547-2.8 19.387 19.387 0 004.084-1.55zm2.884.423a9.934 9.934 0 00-1.1-1.44 28.29 28.29 0 005.428-4.584 18.02 18.02 0 01-4.328 6.024zm4.1-20.649a50.855 50.855 0 00-4.853-3.112 7.602 7.602 0 001.014-1.912 11.572 11.572 0 013.84 5.024h-.001zm-11.246-5.8a7.43 7.43 0 00.68-2.55 22.64 22.64 0 014.995 2.142 5.4 5.4 0 01-1.076 2.167 28.513 28.513 0 00-4.598-1.758zm-5.271-3.779c1.344.17 2.68.407 4 .712a4.665 4.665 0 01-.757 2.57 26.006 26.006 0 00-3.54-.453 6.373 6.373 0 00.298-2.828h-.001zm-2.047-.207a4.4 4.4 0 01-.406 2.995c-.594.012-1.2.039-1.815.09-.615.05-1.2.128-1.775.225a6.36 6.36 0 00-.412-3.379 32.67 32.67 0 014.409.07h-.001zm-9.168 4.875a10.674 10.674 0 00-2.148-3.53 20.955 20.955 0 014.706-1.208 4.516 4.516 0 01.484 3.638.12.12 0 000 .016 20.91 20.91 0 00-3.043 1.084zm-4.057-2.65a8.72 8.72 0 012.243 3.573 24.154 24.154 0 00-2.76 1.836 15.245 15.245 0 00-2.82-2.877 13.416 13.416 0 013.337-2.531zm-5.2 5.19c.185-.377.393-.741.625-1.092a13.33 13.33 0 012.52 2.584 43.147 43.147 0 00-3.537 3.567 6.143 6.143 0 01.386-5.059h.006zM5.292 24.889a.856.856 0 01.74.155c.8.527 1.523 1.055 2.2 1.544 2.015 1.465 3.608 2.621 5.41 2.621 1.048 0 1.899-.961 3.459-2.707a41.504 41.504 0 014.452-4.457h.008c.008-.005.011-.013.019-.018a19.943 19.943 0 0111.295-4.825c4.783-.433 9.589.54 13.826 2.8.017.008.033.018.051.025a61.989 61.989 0 018.565 5.7c.807.605 1.6 1.2 2.4 1.78a35.877 35.877 0 01-8.789 10.664 4.024 4.024 0 01-2.608-1.679 3.038 3.038 0 01.541-2.769 1 1 0 10-1.714-1.029c-1.044 1.74-1.26 3.3-.643 4.636a4.851 4.851 0 002.415 2.236 19.18 19.18 0 01-3.005 1.53 4.839 4.839 0 01-2.615-2.414 3.497 3.497 0 01.563-2.956 1 1 0 10-1.715-1.03 5.383 5.383 0 00-.74 4.638 5.57 5.57 0 001.948 2.544 15.503 15.503 0 01-4.458.333c-8.384-.594-13.164-3.78-16.655-6.106-2.428-1.618-4.347-2.9-6.6-2.9-1.8 0-3.394 1.156-5.41 2.621-.675.49-1.4 1.017-2.2 1.545a.829.829 0 01-.743.158c-.344-.1-.984-.5-1.827-1.933l2.994-1.5a1.001 1.001 0 00.108-1.733 1 1 0 00-1.002-.056l-2.99 1.501a7.198 7.198 0 01-.126-5.261l3.113 1.555a1 1 0 10.895-1.787L3.37 26.773a4.194 4.194 0 011.922-1.884z" fill="#0D58B3"></path><path d="M51.004 26.21a1 1 0 11-2 0 1 1 0 012 0zm0 5a1 1 0 11-2 0 1 1 0 012 0zm-34 1c.233 0 2.424-.09 7.514-3.143 3.543-2.127 7.752-.868 9.362-.248-.02.187-.036.377-.038.584a3.435 3.435 0 001.518 3.2c.679.383 1.45.572 2.23.543a15.139 15.139 0 005.869-1.661 1 1 0 00-.911-1.781c-1.837.938-4.957 1.924-6.138 1.2-.142-.088-.578-.358-.568-1.482.012-1.331.568-1.7.751-1.823 1.35-.9 4.369 0 5.32.39a1 1 0 00.757-1.85c-.473-.2-4.7-1.853-7.183-.207-.386.26-.715.597-.968.988-1.979-.761-6.77-2.122-11.03.434-4.571 2.741-6.485 2.855-6.485 2.856a1 1 0 100 2z" fill="#0D58B3"></path><path d="M49.204 59.926a7.23 7.23 0 005.389-1.38 6.016 6.016 0 001.2-8.42 5.008 5.008 0 00-7.017-1 4.212 4.212 0 00-1.68 3.57c-.74.14-1.416.515-1.927 1.07a4.039 4.039 0 00-.954 2.8c.014.193.083.378.2.533a7.22 7.22 0 004.79 2.827zM46.667 55.1c.272-.27.63-.438 1.013-.474.08.136.167.266.262.391a1 1 0 101.6-1.2 2.21 2.21 0 01.443-3.093 3.012 3.012 0 014.216.6 4.015 4.015 0 01-.8 5.621 5.268 5.268 0 01-7.164-.789c.03-.388.18-.757.43-1.056z" fill="#FF6947"></path><path d="M53.004 53a1 1 0 11-2 0 1 1 0 012 0zm-41.996-7a1 1 0 11-2 0 1 1 0 012 0zM38.004 7.003a1 1 0 11-2 0 1 1 0 012 0zM6.173 13.05a5.013 5.013 0 005.67-4.253 4.186 4.186 0 00-.8-3.121 4.253 4.253 0 00-.537-.592 3.487 3.487 0 00.602-2.119 4.032 4.032 0 00-1.3-2.65 1.01 1.01 0 00-.515-.238 7.268 7.268 0 00-8.224 6.168 6.016 6.016 0 005.1 6.804h.004zM3.049 6.527A5.269 5.269 0 018.672 2.02a1.9 1.9 0 01.442 1.043 1.62 1.62 0 01-.378 1.064 4.443 4.443 0 00-.464-.092 1 1 0 10-.284 1.979 2.206 2.206 0 011.875 2.5 3.01 3.01 0 01-3.407 2.555 4.016 4.016 0 01-3.407-4.541z" fill="#FF6947"></path><path d="M7.532 9.038a1 1 0 10-1.416-1.413 1 1 0 001.416 1.413zm47.472-.035a3 3 0 100-6 3 3 0 000 6zm0-4a1 1 0 110 2 1 1 0 010-2zm-10 3a4 4 0 100-8 4 4 0 000 8zm0-6a2 2 0 110 4 2 2 0 010-4zM14.008 57a3 3 0 100-6 3 3 0 000 6zm0-4a1 1 0 110 2 1 1 0 010-2zm-8-1a4 4 0 100 8 4 4 0 000-8zm0 6a2 2 0 110-4 2 2 0 010 4z" fill="#FF6947"></path></g><path d="M71.874 18.166h-2.318v4.727H68V12.15h1.556v4.665h2.35l3.493-4.665h1.699l-3.97 5.202 4.16 5.54h-1.81l-3.604-4.727zm11.786-6.138c1.481 0 2.651.42 3.508 1.258.858.83 1.286 2.02 1.286 3.576v6.03h-1.587v-2.961h-6.415v2.962h-1.556v-6.031c0-1.555.429-2.747 1.286-3.576.858-.838 2.017-1.258 3.477-1.258zm3.207 6.568v-1.872c0-1.095-.286-1.924-.858-2.486-.56-.563-1.344-.844-2.35-.844-1.005 0-1.794.281-2.365.844-.561.563-.842 1.391-.842 2.486v1.872h6.415zm15.191 4.297l-.016-7.827-4.017 6.522h-.73l-4.017-6.476v7.78h-1.524v-10.74h1.302l4.636 7.55 4.572-7.55h1.302l.016 10.742h-1.524zm8.905-7.873c.773 0 1.461.17 2.064.507a3.48 3.48 0 011.429 1.396c.339.594.508 1.274.508 2.041 0 .788-.18 1.489-.539 2.103a3.648 3.648 0 01-1.477 1.411c-.635.338-1.365.507-2.191.507-1.387 0-2.461-.47-3.223-1.412-.762-.941-1.143-2.24-1.143-3.898 0-1.729.338-3.054 1.016-3.974.688-.92 1.757-1.545 3.207-1.872l3.747-.829.191.997-3.525.783c-1.196.256-2.075.711-2.636 1.366-.561.644-.868 1.6-.921 2.87a3.67 3.67 0 011.413-1.458c.604-.358 1.297-.537 2.08-.537zm-.174 7.06a3.13 3.13 0 001.556-.384 2.76 2.76 0 001.079-1.105c.265-.47.397-1.003.397-1.596 0-.594-.127-1.115-.381-1.565a2.611 2.611 0 00-1.079-1.044c-.456-.256-.98-.383-1.572-.383-.593 0-1.122.127-1.588.383a2.745 2.745 0 00-1.08 1.044c-.254.45-.381.971-.381 1.565 0 .593.127 1.125.381 1.596.265.47.63.839 1.096 1.105.466.255.99.383 1.572.383zm14.181-7.259v8.072h-1.08v-1.596a3.376 3.376 0 01-1.349 1.243c-.551.286-1.175.43-1.874.43a4.363 4.363 0 01-2.127-.522 3.798 3.798 0 01-1.493-1.458c-.36-.624-.54-1.335-.54-2.133s.18-1.51.54-2.133a3.692 3.692 0 011.493-1.443c.635-.348 1.344-.521 2.127-.521.678 0 1.286.138 1.826.414.55.266 1 .66 1.35 1.181v-1.534h1.127zm-4.208 7.182c.583 0 1.107-.128 1.572-.384.477-.266.847-.64 1.112-1.12.275-.481.412-1.028.412-1.642 0-.614-.137-1.161-.412-1.642a2.708 2.708 0 00-1.112-1.105 3.109 3.109 0 00-1.572-.399c-.592 0-1.127.133-1.603.399a2.844 2.844 0 00-1.112 1.105c-.264.48-.397 1.028-.397 1.642 0 .614.133 1.16.397 1.642.276.48.646.854 1.112 1.12a3.334 3.334 0 001.603.384zm14.206-7.182v8.072h-1.127v-7.105h-4.001l-.111 1.995c-.085 1.677-.286 2.966-.604 3.867-.317.9-.883 1.35-1.698 1.35-.223 0-.493-.04-.81-.123l.079-.936c.191.041.323.062.397.062.434 0 .762-.195.985-.584.222-.388.37-.87.444-1.442.074-.573.138-1.33.191-2.271l.143-2.885h6.112zm10.032 0v8.072h-1.127v-7.105h-4.001l-.111 1.995c-.085 1.677-.286 2.966-.604 3.867-.317.9-.884 1.35-1.699 1.35-.222 0-.492-.04-.809-.123l.079-.936c.191.041.323.062.397.062.434 0 .762-.195.984-.584.223-.388.371-.87.445-1.442.074-.573.137-1.33.19-2.271l.143-2.885H145zM70.603 34.218h-1.508v2.904h-.458V31h.458v2.816h1.516L72.864 31h.511l-2.405 2.982 2.567 3.14h-.538l-2.396-2.904zm7.987-1.661v4.565h-.44v-1.076c-.186.356-.446.63-.78.822a2.247 2.247 0 01-1.14.289c-.437 0-.832-.1-1.185-.298a2.188 2.188 0 01-.835-.822 2.395 2.395 0 01-.296-1.198 2.4 2.4 0 01.296-1.198 2.11 2.11 0 01.835-.822 2.377 2.377 0 011.184-.297c.42 0 .793.096 1.122.288.335.193.599.46.79.805v-1.058h.449zm-2.334 4.206c.36 0 .68-.081.96-.245a1.74 1.74 0 00.674-.682c.167-.291.251-.624.251-.997s-.084-.705-.251-.997a1.739 1.739 0 00-.673-.682 1.878 1.878 0 00-.96-.245c-.36 0-.683.082-.97.245-.28.163-.505.39-.673.682a2.022 2.022 0 00-.242.997c0 .373.08.706.242.997.168.292.392.52.673.682.287.164.61.245.97.245zm9.341-4.206v4.565h-.413v-3.866l-2.037 3.28h-.207l-2.028-3.27v3.856H80.5v-4.565h.44l2.118 3.454 2.127-3.454h.413zm5.305 0v4.565h-.449v-1.968a4.034 4.034 0 01-1.669.376c-.55 0-.984-.122-1.301-.367-.311-.245-.467-.606-.467-1.085v-1.521h.449v1.495c0 .356.123.63.368.822.245.193.583.289 1.014.289.49 0 1.026-.12 1.606-.359v-2.247h.449zm6.083 0v4.565h-.44v-1.076c-.186.356-.446.63-.78.822a2.247 2.247 0 01-1.14.289c-.437 0-.832-.1-1.185-.298a2.188 2.188 0 01-.835-.822 2.395 2.395 0 01-.296-1.198 2.4 2.4 0 01.296-1.198 2.11 2.11 0 01.835-.822 2.378 2.378 0 011.184-.297c.42 0 .793.096 1.122.288.335.193.599.46.79.805v-1.058h.449zm-2.334 4.206c.36 0 .68-.081.96-.245a1.74 1.74 0 00.674-.682c.167-.291.251-.624.251-.997s-.084-.705-.251-.997a1.739 1.739 0 00-.673-.682 1.878 1.878 0 00-.96-.245c-.36 0-.683.082-.97.245-.28.163-.505.39-.673.682a2.022 2.022 0 00-.242.997c0 .373.08.706.242.997.168.292.392.52.673.682.287.164.61.245.97.245zm10.077-4.241c.58 0 1.035.166 1.364.498.335.332.502.81.502 1.434v2.668h-.449v-2.633c0-.513-.128-.903-.385-1.171-.258-.269-.617-.403-1.077-.403-.527 0-.946.16-1.257.481-.305.32-.457.752-.457 1.295v2.43h-.449V34.49c0-.513-.129-.903-.386-1.171-.257-.269-.616-.403-1.077-.403-.526 0-.945.16-1.256.481-.305.32-.458.752-.458 1.295v2.43h-.449v-4.564h.431v.98c.156-.322.386-.57.691-.744.311-.18.679-.271 1.104-.271.425 0 .784.093 1.077.28.299.186.511.46.637.822.156-.339.398-.607.727-.805a2.249 2.249 0 011.167-.297zm5.542 4.635c-.454 0-.861-.1-1.22-.298a2.175 2.175 0 01-.844-.822 2.374 2.374 0 01-.305-1.198c0-.449.102-.848.305-1.198a2.1 2.1 0 01.844-.822 2.483 2.483 0 011.22-.297c.377 0 .718.073 1.023.218.311.14.563.347.754.621l-.332.236a1.54 1.54 0 00-.628-.507 1.878 1.878 0 00-.817-.175c-.365 0-.694.082-.987.245a1.744 1.744 0 00-.682.674 2.046 2.046 0 00-.242 1.005c0 .38.081.714.242 1.006.168.291.395.519.682.682.293.157.622.236.987.236.299 0 .572-.055.817-.166a1.61 1.61 0 00.628-.516l.332.236a1.868 1.868 0 01-.754.63c-.305.14-.646.21-1.023.21zm4.69-2.152h-1.139v2.117h-.449v-4.565h.449v2.072h1.139l1.768-2.072h.494l-1.903 2.212 2.046 2.353h-.538l-1.867-2.117zm7.492-2.448v4.565h-.44v-1.076c-.185.356-.445.63-.78.822a2.25 2.25 0 01-1.14.289c-.437 0-.832-.1-1.185-.298a2.183 2.183 0 01-.834-.822 2.39 2.39 0 01-.296-1.198c0-.449.098-.848.296-1.198.203-.355.481-.63.834-.822a2.378 2.378 0 011.185-.297c.419 0 .793.096 1.122.288.335.193.598.46.789.805v-1.058h.449zm-2.333 4.206c.359 0 .679-.081.96-.245.287-.163.511-.39.673-.682a1.96 1.96 0 00.251-.997 1.96 1.96 0 00-.251-.997 1.743 1.743 0 00-.673-.682 1.876 1.876 0 00-.96-.245c-.359 0-.682.082-.969.245-.282.163-.506.39-.674.682a2.028 2.028 0 00-.242.997c0 .373.081.706.242.997.168.292.392.52.674.682.287.164.61.245.969.245zm7.698-4.206v4.565h-.413v-1.574h-1.562c-.107 0-.185-.003-.233-.01l-1.158 1.584h-.493l1.211-1.636c-.383-.081-.676-.242-.879-.48-.204-.24-.305-.549-.305-.928 0-.501.17-.88.511-1.137.347-.256.82-.384 1.418-.384h1.903zm-3.384 1.539c0 .746.485 1.12 1.454 1.12h1.517V32.94h-1.463c-1.005 0-1.508.385-1.508 1.155zm9.517 3.061c-.455 0-.862-.1-1.221-.298a2.166 2.166 0 01-.843-.822 2.364 2.364 0 01-.305-1.198c0-.449.101-.848.305-1.198a2.09 2.09 0 01.843-.822 2.484 2.484 0 011.221-.297c.377 0 .718.073 1.023.218.311.14.562.347.754.621l-.332.236a1.543 1.543 0 00-.629-.507 1.873 1.873 0 00-.816-.175c-.365 0-.694.082-.987.245a1.73 1.73 0 00-.682.674 2.036 2.036 0 00-.243 1.005c0 .38.081.714.243 1.006.167.291.394.519.682.682.293.157.622.236.987.236.299 0 .571-.055.816-.166.252-.117.461-.288.629-.516l.332.236a1.874 1.874 0 01-.754.63c-.305.14-.646.21-1.023.21zm7.104-4.6v4.565h-.44v-.962a1.74 1.74 0 01-.7.734c-.299.175-.652.263-1.059.263-.61 0-1.092-.163-1.445-.49-.347-.332-.52-.813-.52-1.443v-2.667h.449v2.632c0 .513.134.904.404 1.172.269.268.649.402 1.139.402.527 0 .945-.16 1.257-.48.311-.321.466-.753.466-1.295v-2.431h.449zm3.824 4.6c-.455 0-.861-.1-1.22-.298a2.169 2.169 0 01-.844-.822 2.374 2.374 0 01-.305-1.198c0-.449.102-.848.305-1.198.203-.355.485-.63.844-.822a2.48 2.48 0 011.22-.297c.377 0 .718.073 1.023.218.311.14.562.347.754.621l-.332.236a1.546 1.546 0 00-.628-.507 1.88 1.88 0 00-.817-.175c-.365 0-.694.082-.987.245a1.737 1.737 0 00-.682.674 2.035 2.035 0 00-.242 1.005c0 .38.08.714.242 1.006a1.8 1.8 0 00.682.682c.293.157.622.236.987.236.299 0 .571-.055.817-.166.251-.117.46-.288.628-.516l.332.236a1.874 1.874 0 01-.754.63c-.305.14-.646.21-1.023.21zm8.935-4.635c.58 0 1.035.166 1.364.498.335.332.503.81.503 1.434v2.668h-.449v-2.633c0-.513-.129-.903-.386-1.171-.257-.269-.616-.403-1.077-.403-.526 0-.945.16-1.256.481-.305.32-.458.752-.458 1.295v2.43h-.449V34.49c0-.513-.128-.903-.386-1.171-.257-.269-.616-.403-1.076-.403-.527 0-.946.16-1.257.481-.305.32-.457.752-.457 1.295v2.43h-.449v-4.564h.431v.98c.155-.322.385-.57.691-.744.311-.18.679-.271 1.103-.271.425 0 .784.093 1.077.28.299.186.512.46.637.822.156-.339.398-.607.727-.805a2.249 2.249 0 011.167-.297zm5.552 4.241c.305 0 .586-.052.843-.157.263-.111.482-.271.655-.481l.261.288a1.97 1.97 0 01-.763.56c-.305.123-.64.184-1.005.184-.467 0-.886-.1-1.257-.298a2.214 2.214 0 01-.861-.822 2.334 2.334 0 01-.305-1.198c0-.449.095-.848.287-1.198.197-.35.469-.624.816-.822a2.328 2.328 0 011.176-.297c.407 0 .772.093 1.095.28.329.18.589.434.781.76.197.321.305.683.323 1.085l-3.958.752c.114.42.341.752.682.997s.751.367 1.23.367zm-.153-3.856c-.353 0-.67.081-.951.244-.281.158-.5.382-.655.674a2.01 2.01 0 00-.234.98c0 .063.006.154.018.27l3.572-.682a1.805 1.805 0 00-.296-.752 1.622 1.622 0 00-.61-.533 1.767 1.767 0 00-.844-.201zm8.702-.35v4.565h-.413v-3.866l-2.037 3.28h-.206l-2.028-3.27v3.856h-.413v-4.565h.439l2.118 3.454 2.127-3.454h.413zm6.086 0v4.565h-.44v-1.076c-.185.356-.445.63-.78.822a2.247 2.247 0 01-1.14.289c-.437 0-.832-.1-1.185-.298a2.183 2.183 0 01-.834-.822 2.39 2.39 0 01-.296-1.198c0-.449.098-.848.296-1.198.203-.355.481-.63.834-.822a2.378 2.378 0 011.185-.297c.419 0 .793.096 1.122.288.335.193.598.46.789.805v-1.058H174zm-2.333 4.206c.359 0 .679-.081.96-.245.287-.163.511-.39.673-.682a1.96 1.96 0 00.251-.997 1.96 1.96 0 00-.251-.997 1.743 1.743 0 00-.673-.682 1.876 1.876 0 00-.96-.245c-.359 0-.682.082-.969.245-.282.163-.506.39-.673.682a2.017 2.017 0 00-.243.997c0 .373.081.706.243.997a1.8 1.8 0 00.673.682c.287.164.61.245.969.245zM70.37 47.846c-.456 0-.862-.1-1.221-.298a2.171 2.171 0 01-.844-.822A2.37 2.37 0 0168 45.528c0-.449.102-.848.305-1.198.203-.356.485-.63.844-.822a2.482 2.482 0 011.22-.297c.377 0 .718.072 1.023.218.311.14.563.347.754.621l-.332.236a1.544 1.544 0 00-.628-.507 1.878 1.878 0 00-.817-.175c-.365 0-.694.082-.987.245a1.739 1.739 0 00-.682.673 2.04 2.04 0 00-.242 1.006c0 .379.08.714.242 1.006.168.291.395.519.682.682.293.157.622.236.987.236.3 0 .572-.055.817-.166.251-.117.46-.289.628-.516l.332.236a1.867 1.867 0 01-.754.63c-.305.14-.646.21-1.023.21zm4.889 0c-.443 0-.844-.1-1.203-.298a2.19 2.19 0 01-.834-.822 2.37 2.37 0 01-.306-1.198c0-.443.102-.84.306-1.19a2.17 2.17 0 01.834-.83c.36-.198.76-.297 1.203-.297.442 0 .84.099 1.193.297.36.198.64.475.844.83.203.35.305.747.305 1.19 0 .443-.102.843-.305 1.198-.204.35-.485.624-.844.822-.353.198-.75.298-1.193.298zm0-.394c.359 0 .679-.082.96-.245.287-.163.511-.39.673-.682.167-.291.251-.624.251-.997s-.084-.705-.251-.997a1.739 1.739 0 00-.673-.682 1.877 1.877 0 00-.96-.245c-.36 0-.682.082-.97.245-.28.163-.505.39-.673.682a2.023 2.023 0 00-.242.997c0 .373.08.706.242.997.168.292.392.519.674.682.287.163.61.245.969.245zm8.586-.026V49h-.43v-1.19h-4.353v-4.565h.449v4.18h3.105v-4.18h.449v4.18h.78zm5.31-4.181v4.566h-.44v-.962c-.16.315-.394.56-.7.734-.299.175-.651.263-1.058.263-.61 0-1.092-.164-1.445-.49-.347-.333-.52-.814-.52-1.443v-2.667h.448v2.632c0 .513.135.904.404 1.172.27.268.649.402 1.14.402.526 0 .945-.16 1.256-.48.311-.322.467-.753.467-1.295v-2.431h.448zm6.077 0v4.566h-.44v-1.076a1.98 1.98 0 01-.78.822 2.247 2.247 0 01-1.14.289c-.437 0-.832-.1-1.185-.298a2.189 2.189 0 01-.834-.822 2.395 2.395 0 01-.296-1.198c0-.449.098-.848.296-1.198a2.1 2.1 0 01.834-.822 2.377 2.377 0 011.185-.297c.419 0 .793.096 1.121.288.336.192.599.46.79.805v-1.059h.449zm-2.333 4.207c.359 0 .679-.082.96-.245a1.74 1.74 0 00.673-.682c.168-.291.251-.624.251-.997s-.084-.705-.251-.997a1.739 1.739 0 00-.673-.682 1.876 1.876 0 00-.96-.245c-.36 0-.682.082-.97.245-.28.163-.505.39-.672.682a2.021 2.021 0 00-.243.997c0 .373.08.706.243.997.167.292.391.519.672.682.288.163.61.245.97.245zm7.904-4.207v4.566h-.449v-4.172h-2.44l-.063 1.216c-.036.63-.09 1.157-.162 1.583-.072.425-.194.77-.368 1.032a.817.817 0 01-.718.393c-.09 0-.218-.02-.386-.061l.045-.376c.096.023.168.035.216.035.25 0 .442-.12.574-.359.131-.239.221-.536.27-.892.047-.355.086-.819.116-1.39l.08-1.575h3.285zm3.769 4.653c-.622 0-1.106-.152-1.453-.455-.341-.309-.512-.737-.512-1.285v-2.913h.449v2.02c.155-.21.368-.372.637-.489.275-.123.592-.184.951-.184.586 0 1.041.146 1.364.438.323.285.485.667.485 1.145 0 .333-.078.63-.234.892-.149.263-.37.467-.664.612-.287.146-.628.22-1.023.22zm.009-.35c.449 0 .802-.128 1.059-.385.264-.256.395-.583.395-.979 0-.373-.129-.673-.386-.9-.257-.234-.622-.35-1.095-.35-.347 0-.652.072-.915.218a1.39 1.39 0 00-.583.586v.437c0 .426.134.761.404 1.006.269.245.643.367 1.121.367zm3.244-4.303h.448v2.082h3.177v-2.081h.449v4.565h-.449v-2.1h-3.177v2.1h-.448v-4.566zm7.806 4.653c-.616 0-1.092-.152-1.427-.455-.335-.309-.502-.737-.502-1.285v-2.913h.449v2.02a1.45 1.45 0 01.61-.48c.269-.129.58-.193.933-.193.574 0 1.02.146 1.337.438.317.285.476.667.476 1.145 0 .333-.078.63-.233.892-.15.257-.365.46-.647.612a2.135 2.135 0 01-.996.22zm2.701-4.653h.449v4.566h-.449v-4.566zm-2.683 4.303c.437 0 .778-.128 1.023-.385.252-.262.377-.588.377-.979 0-.367-.125-.668-.377-.9-.251-.234-.61-.35-1.077-.35a1.72 1.72 0 00-.879.218 1.35 1.35 0 00-.565.586v.437c0 .432.128.77.385 1.015.258.239.629.358 1.113.358zm8.001.262l-1.606-2.037-1.606 2.038h-.512l1.858-2.353-1.759-2.212h.512l1.507 1.897 1.508-1.898h.502l-1.759 2.213 1.885 2.353h-.53zm6.143-4.494c.437 0 .823.096 1.158.288.341.187.607.449.799.787.191.338.287.729.287 1.172 0 .443-.099.84-.296 1.19a2.084 2.084 0 01-.817.813 2.42 2.42 0 01-1.193.288c-.515 0-.955-.122-1.32-.367-.358-.245-.634-.592-.825-1.04-.186-.45-.278-.974-.278-1.575 0-.682.083-1.248.251-1.696a2.34 2.34 0 01.772-1.059c.347-.262.789-.457 1.328-.586l2.073-.49.072.412-1.975.454c-.484.111-.879.275-1.184.49-.299.21-.524.499-.673.866-.15.367-.228.837-.234 1.408.156-.42.416-.75.781-.988.365-.245.79-.367 1.274-.367zm-.053 4.162c.353 0 .67-.081.951-.245a1.71 1.71 0 00.655-.673 2.06 2.06 0 00.233-.988c0-.367-.077-.691-.233-.97a1.597 1.597 0 00-.655-.657 1.88 1.88 0 00-.951-.236c-.359 0-.679.079-.961.236-.281.152-.499.37-.655.656a1.97 1.97 0 00-.233.97c0 .368.078.698.233.989.156.286.374.51.655.673.282.164.602.245.961.245zm7.917-4.233v4.566h-.44v-1.076c-.185.356-.445.63-.78.822a2.25 2.25 0 01-1.14.289c-.437 0-.832-.1-1.185-.298a2.184 2.184 0 01-.834-.822 2.389 2.389 0 01-.296-1.198c0-.449.098-.848.296-1.198a2.1 2.1 0 01.834-.822 2.378 2.378 0 011.185-.297c.419 0 .793.096 1.122.288.335.192.598.46.789.805v-1.059h.449zm-2.333 4.207c.359 0 .679-.082.96-.245.287-.163.511-.39.673-.682a1.96 1.96 0 00.251-.997 1.96 1.96 0 00-.251-.997 1.743 1.743 0 00-.673-.682 1.875 1.875 0 00-.96-.245c-.359 0-.682.082-.969.245-.282.163-.506.39-.674.682a2.028 2.028 0 00-.242.997c0 .373.081.706.242.997.168.292.392.519.674.682.287.163.61.245.969.245zm7.904-4.207v4.566h-.449v-4.172h-2.441l-.062 1.216c-.036.63-.09 1.157-.162 1.583-.072.425-.194.77-.368 1.032a.816.816 0 01-.718.393 1.78 1.78 0 01-.386-.061l.045-.376c.096.023.168.035.216.035.251 0 .442-.12.574-.359.132-.239.221-.536.269-.892.048-.355.087-.819.117-1.39l.081-1.575h3.284zm5.6 0v4.566h-.449v-4.172h-2.441l-.062 1.216c-.036.63-.09 1.157-.162 1.583-.072.425-.194.77-.368 1.032a.816.816 0 01-.718.393 1.78 1.78 0 01-.386-.061l.045-.376c.096.023.168.035.216.035.251 0 .442-.12.574-.359.132-.239.221-.536.269-.892.048-.355.087-.819.117-1.39l.081-1.575h3.284zm3.805 4.601c-.442 0-.843-.1-1.202-.298a2.194 2.194 0 01-.835-.822 2.374 2.374 0 01-.305-1.198c0-.443.102-.84.305-1.19.204-.355.482-.632.835-.83.359-.198.76-.297 1.202-.297.443 0 .841.099 1.194.297.359.198.64.475.843.83.204.35.306.747.306 1.19 0 .443-.102.843-.306 1.198-.203.35-.484.624-.843.822a2.396 2.396 0 01-1.194.298zm0-.394c.359 0 .679-.082.96-.245.288-.163.512-.39.674-.682a1.97 1.97 0 00.251-.997 1.97 1.97 0 00-.251-.997 1.738 1.738 0 00-.674-.682 1.875 1.875 0 00-.96-.245c-.359 0-.682.082-.969.245-.281.163-.505.39-.673.682a2.017 2.017 0 00-.242.997c0 .373.08.706.242.997.168.292.392.519.673.682.287.163.61.245.969.245zm6.577-1.994c.688.117 1.032.493 1.032 1.128 0 .397-.15.7-.449.91-.293.21-.736.315-1.328.315h-2.028v-4.566h1.974c.521 0 .927.102 1.221.307.299.198.448.483.448.857a.999.999 0 01-.233.673c-.15.175-.362.3-.637.376zm-2.333-.131h1.507c.401 0 .709-.073.924-.219a.744.744 0 00.324-.647c0-.286-.108-.498-.324-.638-.209-.146-.517-.219-.924-.219h-1.507v1.723zm1.579 2.125c.891 0 1.337-.294 1.337-.883 0-.31-.102-.537-.305-.682-.203-.146-.524-.219-.96-.219h-1.651v1.784h1.579z" fill="#000"></path><defs><clipPath id="clip0-88"><path fill="#fff" d="M0 0h60v60H0z"></path></clipPath></defs></svg>